<svg id="logo-paylivreV2" xmlns="http://www.w3.org/2000/svg" xmlns:xlink="http://www.w3.org/1999/xlink" width="112.462" height="27.91" viewBox="0 0 112.462 27.91">
  <defs>
    <linearGradient id="linear-gradient" x1="0.35" x2="0.953" gradientUnits="objectBoundingBox">
      <stop offset="0" stop-color="#fff"/>
      <stop offset="1" stop-color="#fff" stop-opacity="0"/>
    </linearGradient>
  </defs>
  <path id="Union_4" data-name="Union 4" d="M38.1,27.273l2.547-6.314L34.17,5.412H38.2l4.4,11.142L46.693,5.412h4.085l-8.7,21.86ZM0,21.489V10.877H4.616l4.51-.053a3.678,3.678,0,0,0,2.706-1.061,3.56,3.56,0,0,0,1.008-2.6,3.241,3.241,0,0,0-1.008-2.493A3.8,3.8,0,0,0,9.126,3.608H3.608V0H9.445A7.124,7.124,0,0,1,14.7,2.122a7.353,7.353,0,0,1,2.175,5.2,6.77,6.77,0,0,1-2.122,5.094,7.367,7.367,0,0,1-5.306,2.123l-5.253.053v6.9Zm98.637-2.6A7.731,7.731,0,0,1,96.3,13.212a7.65,7.65,0,0,1,2.387-5.73,7.733,7.733,0,0,1,5.677-2.334,8.045,8.045,0,0,1,7.906,6.526,7.043,7.043,0,0,1,.053,2.972h-12.15a3.8,3.8,0,0,0,1.485,2.387,4.381,4.381,0,0,0,2.759.849,5.282,5.282,0,0,0,4.033-1.645l3.343.9a7.109,7.109,0,0,1-3.025,2.972,8.979,8.979,0,0,1-4.4,1.167A7.815,7.815,0,0,1,98.637,18.889Zm2.972-9.444a3.851,3.851,0,0,0-1.485,2.281h8.436a4.207,4.207,0,0,0-1.432-2.281,4.027,4.027,0,0,0-2.759-.9A4.415,4.415,0,0,0,101.609,9.445Zm-79.43,11.62a6.191,6.191,0,0,1-1.857-.743,3.484,3.484,0,0,1-1.486-1.539,4.973,4.973,0,0,1-.584-2.388A4.18,4.18,0,0,1,19.9,12.734a7.885,7.885,0,0,1,4.669-1.22l4.616-.053v-.849a1.881,1.881,0,0,0-.955-1.751,4.813,4.813,0,0,0-2.493-.584c-1.911,0-3.078.637-3.449,1.91l-3.661.053a4.411,4.411,0,0,1,2.07-3.767,8.506,8.506,0,0,1,4.988-1.432,8.679,8.679,0,0,1,5.041,1.432,4.377,4.377,0,0,1,2.122,3.714V21.065H29.235V19.1a5.952,5.952,0,0,1-1.963,1.485,7,7,0,0,1-3.184.69A7.811,7.811,0,0,1,22.179,21.065Zm.584-6.155a1.625,1.625,0,0,0-.69,1.592c.106,1.061.9,1.645,2.335,1.645a5.206,5.206,0,0,0,3.236-1.114,3.273,3.273,0,0,0,1.485-2.759H25.257A4.117,4.117,0,0,0,22.762,14.91ZM85.8,5.412h3.82V7.747A5.13,5.13,0,0,1,91.846,5.73a6.118,6.118,0,0,1,3.608-.371V9.445a4.823,4.823,0,0,0-4.033.318,3.5,3.5,0,0,0-1.8,3.289v7.959H85.8V5.412ZM72.161,21.065,67.227,5.412h4.085l3.98,13.212,3.98-13.212h4.086L78.422,21.065Zm-11.355,0V5.412h3.82V21.065Zm-7.852,0V.371h3.82V21.065ZM0,7.216V3.608H3.608V7.216Z" transform="translate(0 0.637)" fill="#fff"/>
  <rect id="Rectangle_240" data-name="Rectangle 240" width="10.24" height="3.82" transform="translate(60.806)" fill="url(#linear-gradient)"/>
</svg>
