<svg id="Group_3776" data-name="Group 3776" xmlns="http://www.w3.org/2000/svg" width="16.873" height="21.488" viewBox="0 0 16.873 21.488">
  <path id="Path_3782" data-name="Path 3782" d="M97.2,54.422A7.122,7.122,0,0,0,91.945,52.3H86.108v3.608h5.518a3.8,3.8,0,0,1,2.706,1.061,3.242,3.242,0,0,1,1.008,2.494,3.56,3.56,0,0,1-1.008,2.6,3.678,3.678,0,0,1-2.706,1.061l-4.51.053H82.5V73.789h4.192v-6.9l5.253-.053a7.369,7.369,0,0,0,5.306-2.122,6.77,6.77,0,0,0,2.122-5.094,7.351,7.351,0,0,0-2.175-5.2" transform="translate(-82.5 -52.3)" fill="#fff"/>
  <rect id="Rectangle_237" data-name="Rectangle 237" width="3.608" height="3.608" transform="translate(0 3.608)" fill="#fff"/>
</svg>
