<svg xmlns="http://www.w3.org/2000/svg" width="44.3" height="10.994" viewBox="0 0 44.3 10.994">
    <defs>
        <linearGradient id="7so0auw63a" x1=".35" x2=".953" gradientUnits="objectBoundingBox">
            <stop offset="0" stop-color="#215aff"/>
            <stop offset="1" stop-color="#215aff" stop-opacity="0"/>
        </linearGradient>
    </defs>
    <path fill="#215aff" d="M15.007 10.743l1-2.487-2.547-6.124h1.589l1.735 4.389 1.609-4.389H20l-3.428 8.611zM0 8.465v-4.18h1.818L3.6 4.264a1.449 1.449 0 0 0 1.066-.418 1.4 1.4 0 0 0 .4-1.024 1.277 1.277 0 0 0-.4-.982A1.5 1.5 0 0 0 3.6 1.421H1.421V0h2.3A2.806 2.806 0 0 1 5.79.836a2.9 2.9 0 0 1 .857 2.048 2.667 2.667 0 0 1-.837 2.007 2.9 2.9 0 0 1-2.09.836l-2.069.021v2.717zm38.854-1.024a3.045 3.045 0 0 1-.92-2.236 3.013 3.013 0 0 1 .94-2.257 3.046 3.046 0 0 1 2.236-.92A3.169 3.169 0 0 1 44.226 4.6a2.775 2.775 0 0 1 .021 1.171h-4.786a1.5 1.5 0 0 0 .585.94 1.726 1.726 0 0 0 1.087.334 2.081 2.081 0 0 0 1.588-.645l1.317.355a2.8 2.8 0 0 1-1.191 1.171 3.537 3.537 0 0 1-1.735.46 3.078 3.078 0 0 1-2.258-.945zm1.171-3.72a1.517 1.517 0 0 0-.585.9h3.323a1.657 1.657 0 0 0-.564-.9 1.586 1.586 0 0 0-1.087-.355 1.739 1.739 0 0 0-1.087.354zM8.736 8.3a2.439 2.439 0 0 1-.731-.293A1.372 1.372 0 0 1 7.42 7.4a1.959 1.959 0 0 1-.23-.941 1.646 1.646 0 0 1 .648-1.442 3.106 3.106 0 0 1 1.839-.481l1.823-.021V4.18a.741.741 0 0 0-.376-.69 1.9 1.9 0 0 0-.982-.23c-.753 0-1.212.251-1.359.752l-1.442.021a1.737 1.737 0 0 1 .81-1.483 3.35 3.35 0 0 1 1.965-.564 3.419 3.419 0 0 1 1.984.564 1.724 1.724 0 0 1 .836 1.463V8.3h-1.42v-.776a2.344 2.344 0 0 1-.773.585 2.759 2.759 0 0 1-1.254.272 3.077 3.077 0 0 1-.753-.081zm.23-2.424a.64.64 0 0 0-.272.627c.042.418.355.648.92.648a2.051 2.051 0 0 0 1.275-.439 1.289 1.289 0 0 0 .585-1.087H9.949a1.622 1.622 0 0 0-.983.248zM33.8 2.132h1.5v.92a2.021 2.021 0 0 1 .878-.794 2.41 2.41 0 0 1 1.422-.147V3.72a1.9 1.9 0 0 0-1.589.125 1.379 1.379 0 0 0-.711 1.3v3.132h-1.5V2.132zM28.425 8.3l-1.944-6.168h1.609l1.568 5.2 1.568-5.2h1.609L30.891 8.3zm-4.473 0V2.132h1.5V8.3zm-3.093 0V.146h1.5V8.3zM0 2.842V1.421h1.421v1.421z" transform="translate(0 0.251)"/>
    <path fill="url(#7so0auw63a)" d="M0 0H4.034V1.505H0z" transform="translate(23.952 0)"/>
</svg>
